<svg xmlns="http://www.w3.org/2000/svg" width="16" height="16" fill="none" viewBox="0 0 16 16">
    <g fill="#fff" clip-path="url(#a)">
        <path d="M3.542 4.49H.885C.38 4.49 0 4.047 0 3.541V.95C0 .443.38.063.885.063h2.593c.57 0 .949.38.949.886V3.54c0 .506-.38.95-.885.95zM9.297 4.49H6.704a.865.865 0 0 1-.886-.885V.949c0-.506.38-.886.886-.886h2.593c.506 0 .885.38.885.886V3.54c0 .506-.38.95-.885.95zM15.05 4.427h-2.592a.865.865 0 0 1-.886-.885V.885c0-.506.38-.885.886-.885h2.592c.506 0 .886.38.886.885v2.593c0 .57-.38.949-.886.949zM3.542 10.245H.885A.865.865 0 0 1 0 9.36V6.767c0-.506.38-.886.885-.886h2.593c.57-.063.949.317.949.823v2.592c0 .506-.38.949-.885.949zM9.297 10.245H6.704a.865.865 0 0 1-.886-.885V6.767c0-.506.38-.886.886-.886h2.593c.506 0 .885.38.885.886V9.36c0 .442-.38.885-.885.885zM15.05 10.182h-2.592a.865.865 0 0 1-.886-.886V6.703c0-.505.38-.885.886-.885h2.592c.506 0 .886.38.886.885v2.593c0 .506-.38.886-.886.886zM3.542 16H.885A.865.865 0 0 1 0 15.115v-2.593c0-.506.38-.886.885-.886h2.593c.57-.063.949.38.949.886v2.593c0 .506-.38.885-.885.885zM9.297 16H6.704a.865.865 0 0 1-.886-.885v-2.593c0-.506.38-.886.886-.886h2.593c.506 0 .885.38.885.886v2.593c0 .506-.38.885-.885.885zM15.05 15.937h-2.592a.865.865 0 0 1-.886-.885v-2.593c0-.506.38-.886.886-.886h2.592c.506 0 .886.38.886.886v2.593c0 .505-.38.885-.886.885z"/>
    </g>
    <defs>
        <clipPath id="a">
            <path fill="#fff" d="M0 0h15.937v16H0z"/>
        </clipPath>
    </defs>
</svg>
